<svg width="24" height="24" viewBox="0 0 24 24" xmlns="http://www.w3.org/2000/svg">
  <g clip-path="url(#clip0)">
    <path 
      d="M23.953 4.57c-.885.39-1.83.654-2.825.775 1.014-.61 1.794-1.574 2.163-2.723-.95.555-2.005.96-3.127 1.184-.897-.956-2.173-1.555-3.594-1.555-2.717 0-4.92 2.203-4.92 4.917 0 .39.043.765.127 1.124-4.083-.205-7.7-2.157-10.126-5.118-.423.724-.666 1.562-.666 2.457 0 1.696.865 3.195 2.18 4.073-.803-.026-1.56-.247-2.22-.616v.063c0 2.37 1.685 4.348 3.918 4.798-.41.111-.843.17-1.288.17-.314 0-.615-.03-.912-.086.617 1.926 2.415 3.33 4.544 3.368-1.666 1.305-3.757 2.082-6.032 2.082-.39 0-.779-.023-1.17-.067 2.15 1.374 4.705 2.176 7.455 2.176 8.946 0 13.84-7.41 13.84-13.84 0-.21-.005-.423-.014-.634.952-.689 1.784-1.55 2.437-2.53z"
      fill="black"
      stroke="white"
      stroke-width="1.5"
    />
  </g> 
</svg>
